# xmcd CD database file
#
# Track frame offsets:
#	182
#	6642
#	24032
#	44677
#	67942
#	88967
#	109697
#	130855
#	151910
#	170337
#	196475
#	219447
#
# Disc length: 3167 seconds
#
# Revision: 2
# Processed by: cddbd v1.5.1PL2 Copyright (c) Steve Scherf et al.
# Submitted via: CDex 1.70beta1
#
DISCID=9e0c5d0c
DTITLE=J. Quest - The Quest Is On...
DYEAR=1995
DGENRE=R&B
TTITLE0=Given It All (Interlude)
TTITLE1=The Quest is On
TTITLE2=It's Gonna Be Alright
TTITLE3=Brand New Love
TTITLE4=Up and Down (Remix)
TTITLE5=Anything (Album Mix)
TTITLE6=Don't Stop Ya Luv
TTITLE7=From Now On
TTITLE8=Come and Give It
TTITLE9=On My Mind
TTITLE10=Behind The Scenes
TTITLE11=Up and Down (Original Mix)
EXTD=YEAR: 1995
EXTT0=
EXTT1=
EXTT2=
EXTT3=
EXTT4=
EXTT5=
EXTT6=
EXTT7=
EXTT8=
EXTT9=
EXTT10=
EXTT11=
PLAYORDER=
